<svg width="213" height="41" viewBox="0 0 213 41" fill="none" xmlns="http://www.w3.org/2000/svg">
<path d="M13.2852 39.2483L10.6064 37.3833L10.4237 36.4187L9.99757 35.8399L9.38874 35.1325L9.32786 34.4251L9.63227 34.2322L9.26698 33.3319L8.1102 31.1454L7.44049 29.0232L7.19696 26.8367L7.74491 25.2933L9.75404 21.5634L26.1924 20.1486L31.1239 20.7274C31.8748 22.6137 33.0234 26.7852 33.0722 26.8367C33.133 26.901 33.2548 32.3672 33.133 32.8817C33.0356 33.2933 31.5095 36.3972 30.7586 37.8978L26.7403 39.2483L22.6003 40.4701H19.6171L16.3903 39.9556L13.2852 39.2483Z" fill="#DBD4D4"/>
<path d="M25.401 24.0071L23.818 24.5858L23.6354 24.6501L23.818 24.2643L24.4877 23.8141L25.5227 23.4283L26.6186 23.2354H28.1407L30.1498 23.364L31.1848 23.4283L31.7328 23.8784L31.3066 23.8141L29.6019 23.6212L27.0448 23.6855L25.401 24.0071Z" fill="#372C2C"/>
<path d="M14.8682 24.6501L16.4511 25.2289L16.6338 25.2932L16.4511 24.9074L15.7814 24.4572L14.7464 24.0714L13.6505 23.8784H12.1285L10.1193 24.0071L9.08432 24.0714L8.53638 24.5215L8.96256 24.4572L10.6673 24.2643L13.2244 24.3286L14.8682 24.6501Z" fill="#372C2C"/>
<path d="M24.1224 29.6662V28.573H24.0615H23.8788L23.5135 28.8302C23.615 28.6159 23.8301 28.1743 23.8788 28.1228C23.9276 28.0714 24.0615 27.6727 24.1224 27.4797L23.6962 27.737L23.818 27.3511L24.6703 26.708L25.6444 26.3865L26.3142 26.2579L27.958 26.0649C28.3233 26.1078 29.0782 26.1936 29.1757 26.1936C29.2731 26.1936 29.8657 26.6223 30.1498 26.8366L30.8804 27.4797L31.4283 28.1871L31.7936 29.0874L31.3674 29.5376C31.1645 29.8163 30.7464 30.3865 30.6977 30.4379C30.649 30.4894 30.1498 31.1025 29.9062 31.4026L28.7495 32.0456L27.8362 32.1743L26.6795 32.2386L26.0097 32.1743L25.34 31.7884L24.6703 31.2096L24.3659 30.5665L24.1224 29.6662Z" fill="white"/>
<path d="M16.0859 29.6662V28.573H16.1468H16.3294L16.6947 28.8302C16.5932 28.6159 16.3781 28.1743 16.3294 28.1228C16.2807 28.0714 16.1468 27.6727 16.0859 27.4797L16.5121 27.737L16.3903 27.3511L15.5379 26.708L14.5638 26.3865L13.8941 26.2579L12.2503 26.0649C11.885 26.1078 11.13 26.1936 11.0326 26.1936C10.9352 26.1936 10.3426 26.6223 10.0585 26.8366L9.32788 27.4797L8.77994 28.1871L8.41464 29.0874L8.84082 29.5376C9.04376 29.8163 9.46183 30.3865 9.51053 30.4379C9.55924 30.4894 10.0585 31.1025 10.302 31.4026L11.4588 32.0456L12.372 32.1743L13.5288 32.2386L14.1985 32.1743L14.8682 31.7884L15.5379 31.2096L15.8423 30.5665L16.0859 29.6662Z" fill="white"/>
<ellipse cx="12.92" cy="29.3447" rx="2.43531" ry="2.89389" fill="#9E383A"/>
<ellipse cx="27.41" cy="29.3447" rx="2.43531" ry="2.89389" fill="#9E383A"/>
<ellipse cx="0.629321" cy="1.18379" rx="0.629321" ry="1.18379" transform="matrix(0.618242 -0.785988 0.75161 0.659607 13.0417 27.4401)" fill="white"/>
<ellipse cx="0.629321" cy="1.18379" rx="0.629321" ry="1.18379" transform="matrix(0.618242 -0.785988 0.75161 0.659607 27.6536 27.4401)" fill="white"/>
<path d="M15.0508 27.6083L16.0858 28.5087L16.3294 28.6373L16.6947 28.8302L16.512 28.5087L16.3294 28.1228L16.0858 27.4797L16.512 27.737L16.3903 27.3511L16.2076 27.1582L15.8423 26.901L15.5379 26.708L14.442 26.3222L13.4679 26.1936L12.3111 26.0649H11.7632L11.2152 26.1936L10.4846 26.4508L9.32785 27.4797L8.77991 28.1871L8.41461 29.0874L8.53638 29.2161V29.1518L9.44962 28.0585L10.5455 27.4154L11.6414 26.901H12.4329L13.8332 27.0296L15.0508 27.6083Z" fill="#372C2C"/>
<path d="M25.1575 27.6083L24.1225 28.573L23.8789 28.6373L23.5136 28.8302L23.6354 28.5087L23.8789 28.1228L24.1225 27.4797L23.6963 27.737L23.8181 27.3511L24.0007 27.1582L24.366 26.901L24.6704 26.708L25.7663 26.3222L26.7404 26.1936L27.8972 26.0649H28.4451L29.2366 26.1936L29.7237 26.4508L30.8805 27.4797L31.4284 28.1871L31.7937 29.0874L31.6719 29.2161V29.1518L30.7587 28.0585L29.6628 27.4154L28.5669 26.901H27.7754L26.3751 27.0296L25.1575 27.6083Z" fill="#372C2C"/>
<path d="M6.95346 36.3543L8.04935 37.8977L8.17111 37.5762L8.9017 38.0264L9.69318 38.6694L10.6673 38.7981L10.4238 38.2193L10.302 37.5762L10.85 37.3833V36.6116L10.4238 36.0328L9.51053 35.1325V34.618L9.87583 34.1678L9.51053 33.5247L9.02347 32.5601L8.17111 31.081L7.56228 29.0874L7.37964 27.737L7.8667 27.9942L8.17111 27.2225L8.53641 26.1292L8.9017 25.2289L9.02347 24.2H9.87583V25.036L10.4238 26.3222L11.7023 27.9942V27.544L12.1285 26.3222L12.372 25.2289L12.6764 24.0071L13.3461 23.8141L14.0767 25.2289L14.5638 26.5794L15.1118 27.4154L15.9032 28.1871L15.6597 27.4154L15.5379 26.7723V25.5505L15.4162 24.5215L15.5379 24.3286H15.9032L16.8774 26.3222L18.3385 28.8945L20.6521 31.8527L21.6871 30.0521L22.3568 28.573L22.8439 27.0939L23.3309 25.2289L23.5136 24.3929H23.9398V25.3575L23.8789 27.0939L24.3659 26.9009L24.7921 25.8077L25.3401 24.6501L25.888 23.171L26.0707 22.0135V20.3415C26.4157 20.7702 27.1178 21.6534 27.1665 21.7563C27.2153 21.8591 27.958 23.1282 28.3233 23.7498L29.4801 26.5151L30.1498 26.2579L30.5151 24.8431L30.6369 22.9781V20.7916L30.8804 21.3061C31.0427 21.7563 31.3796 22.6694 31.4283 22.7209C31.477 22.7723 32.0575 24.1571 32.3416 24.8431L33.0113 27.0296L32.8895 28.38L32.2807 30.6952L31.0022 32.6244L30.5151 33.9106H31.1239L32.1589 33.2675L31.3066 34.0392L30.5151 35.5183L30.6369 36.29H31.3066L29.9672 37.5119L30.1498 37.7691H30.6369V38.7981L31.5501 38.2193L32.2807 37.7691L32.8895 37.126L33.0113 37.7691L33.4375 37.5119L34.1072 36.5473L34.9595 35.5183L35.9946 34.2964L37.0296 32.6244L37.8819 31.081L38.1863 29.9235H38.369L38.856 30.0521V28.38L38.9778 28.1228V27.6727L39.2213 27.544L39.7084 28.2514L40.0128 28.1228L40.2563 27.3511V25.8077V23.5569V21.8849L40.0128 20.0842L39.7084 17.6405L39.404 16.1614L39.0996 15.0038L38.7343 13.7177L37.7602 11.7884L36.4207 9.47329L34.6551 7.09387L32.9504 5.1003L30.8195 3.17104L28.6277 1.88487L26.436 0.984547L23.818 0.470078H22.4177L21.3827 0.598695L20.6521 0.85593L19.7997 0.984547L18.5821 0.85593L17.7297 0.727312L16.3294 0.598695L14.99 0.727312L13.0417 1.30609L11.337 2.07779L9.20612 3.68551L6.95346 5.55046L5.55315 7.09387L3.48314 9.92345C2.99607 10.931 2.00977 12.9588 1.96107 13.0103C1.91236 13.0617 1.08841 15.3897 0.682527 16.5472L0.378113 18.8624C0.337525 19.6341 0.256348 21.2032 0.256348 21.3061C0.256348 21.4347 0.378113 24.1357 0.378113 24.3286C0.378113 24.5215 0.865176 26.4508 0.926058 26.5794C0.986941 26.708 1.16959 27.4797 1.35224 27.737C1.49836 27.9427 1.41312 28.3372 1.35224 28.5087L1.53489 29.9235L1.90018 30.0521L2.14371 29.7305L2.32636 29.2161H2.56989L3.05696 30.0521L3.48314 31.2739L4.70079 33.1389L6.95346 36.3543Z" fill="#71B1D6"/>
<ellipse cx="27.4101" cy="29.216" rx="0.852359" ry="1.35048" fill="#31262A"/>
<ellipse cx="12.92" cy="29.216" rx="0.852359" ry="1.35048" fill="#31262A"/>
<path d="M20.3477 37.5119L19.7997 37.5762H19.6171L19.7388 37.4476L19.9215 37.319C20.023 37.2975 20.2381 37.2547 20.2868 37.2547H20.6521H21.0174H21.3827L21.6262 37.3833L21.748 37.5762L21.3827 37.5119H20.9565H20.6521H20.3477Z" fill="#966B5B"/>
<path d="M71.2038 25.7086V15.7886H66.4038L66.3438 17.8286C66.3038 18.6952 66.2438 19.5152 66.1638 20.2886C66.0972 21.0619 65.9905 21.7686 65.8438 22.4086C65.6972 23.0352 65.5038 23.5686 65.2638 24.0086C65.0372 24.4486 64.7505 24.7619 64.4038 24.9486L60.9438 24.5086C61.4238 24.5219 61.8172 24.3552 62.1238 24.0086C62.4438 23.6619 62.6972 23.1752 62.8838 22.5486C63.0705 21.9086 63.2038 21.1619 63.2838 20.3086C63.3772 19.4552 63.4438 18.5286 63.4838 17.5286L63.6438 13.1486H74.4038V25.7086H71.2038ZM60.4838 30.0486L60.5038 24.5086H76.3638V30.0486H73.3638V27.1486H63.4838V30.0486H60.4838ZM83.2277 27.3086C82.0811 27.3086 81.0611 27.0686 80.1677 26.5886C79.2877 26.1086 78.5877 25.4552 78.0677 24.6286C77.5611 23.7886 77.3077 22.8352 77.3077 21.7686C77.3077 20.6886 77.5611 19.7352 78.0677 18.9086C78.5877 18.0686 79.2877 17.4152 80.1677 16.9486C81.0611 16.4686 82.0811 16.2286 83.2277 16.2286C84.3611 16.2286 85.3744 16.4686 86.2677 16.9486C87.1611 17.4152 87.8611 18.0619 88.3677 18.8886C88.8744 19.7152 89.1277 20.6752 89.1277 21.7686C89.1277 22.8352 88.8744 23.7886 88.3677 24.6286C87.8611 25.4552 87.1611 26.1086 86.2677 26.5886C85.3744 27.0686 84.3611 27.3086 83.2277 27.3086ZM83.2277 24.7486C83.7477 24.7486 84.2144 24.6286 84.6277 24.3886C85.0411 24.1486 85.3677 23.8086 85.6077 23.3686C85.8477 22.9152 85.9677 22.3819 85.9677 21.7686C85.9677 21.1419 85.8477 20.6086 85.6077 20.1686C85.3677 19.7286 85.0411 19.3886 84.6277 19.1486C84.2144 18.9086 83.7477 18.7886 83.2277 18.7886C82.7077 18.7886 82.2411 18.9086 81.8277 19.1486C81.4144 19.3886 81.0811 19.7286 80.8277 20.1686C80.5877 20.6086 80.4677 21.1419 80.4677 21.7686C80.4677 22.3819 80.5877 22.9152 80.8277 23.3686C81.0811 23.8086 81.4144 24.1486 81.8277 24.3886C82.2411 24.6286 82.7077 24.7486 83.2277 24.7486ZM97.6137 27.3086C96.707 27.3086 95.9137 27.1086 95.2337 26.7086C94.5537 26.3086 94.0203 25.7019 93.6337 24.8886C93.2603 24.0619 93.0737 23.0219 93.0737 21.7686C93.0737 20.5019 93.2537 19.4619 93.6137 18.6486C93.9737 17.8352 94.4937 17.2286 95.1737 16.8286C95.8537 16.4286 96.667 16.2286 97.6137 16.2286C98.627 16.2286 99.5337 16.4619 100.334 16.9286C101.147 17.3819 101.787 18.0219 102.254 18.8486C102.734 19.6752 102.974 20.6486 102.974 21.7686C102.974 22.9019 102.734 23.8819 102.254 24.7086C101.787 25.5352 101.147 26.1752 100.334 26.6286C99.5337 27.0819 98.627 27.3086 97.6137 27.3086ZM91.2537 31.0286V16.3886H94.2337V18.5886L94.1737 21.7886L94.3737 24.9686V31.0286H91.2537ZM97.0737 24.7486C97.5937 24.7486 98.0537 24.6286 98.4537 24.3886C98.867 24.1486 99.1937 23.8086 99.4337 23.3686C99.687 22.9152 99.8137 22.3819 99.8137 21.7686C99.8137 21.1419 99.687 20.6086 99.4337 20.1686C99.1937 19.7286 98.867 19.3886 98.4537 19.1486C98.0537 18.9086 97.5937 18.7886 97.0737 18.7886C96.5537 18.7886 96.087 18.9086 95.6737 19.1486C95.2603 19.3886 94.9337 19.7286 94.6937 20.1686C94.4537 20.6086 94.3337 21.1419 94.3337 21.7686C94.3337 22.3819 94.4537 22.9152 94.6937 23.3686C94.9337 23.8086 95.2603 24.1486 95.6737 24.3886C96.087 24.6286 96.5537 24.7486 97.0737 24.7486ZM110.2 27.3086C109.054 27.3086 108.034 27.0686 107.14 26.5886C106.26 26.1086 105.56 25.4552 105.04 24.6286C104.534 23.7886 104.28 22.8352 104.28 21.7686C104.28 20.6886 104.534 19.7352 105.04 18.9086C105.56 18.0686 106.26 17.4152 107.14 16.9486C108.034 16.4686 109.054 16.2286 110.2 16.2286C111.334 16.2286 112.347 16.4686 113.24 16.9486C114.134 17.4152 114.834 18.0619 115.34 18.8886C115.847 19.7152 116.1 20.6752 116.1 21.7686C116.1 22.8352 115.847 23.7886 115.34 24.6286C114.834 25.4552 114.134 26.1086 113.24 26.5886C112.347 27.0686 111.334 27.3086 110.2 27.3086ZM110.2 24.7486C110.72 24.7486 111.187 24.6286 111.6 24.3886C112.014 24.1486 112.34 23.8086 112.58 23.3686C112.82 22.9152 112.94 22.3819 112.94 21.7686C112.94 21.1419 112.82 20.6086 112.58 20.1686C112.34 19.7286 112.014 19.3886 111.6 19.1486C111.187 18.9086 110.72 18.7886 110.2 18.7886C109.68 18.7886 109.214 18.9086 108.8 19.1486C108.387 19.3886 108.054 19.7286 107.8 20.1686C107.56 20.6086 107.44 21.1419 107.44 21.7686C107.44 22.3819 107.56 22.9152 107.8 23.3686C108.054 23.8086 108.387 24.1486 108.8 24.3886C109.214 24.6286 109.68 24.7486 110.2 24.7486ZM118.246 27.1486V16.3886H126.866V18.9486H120.646L121.346 18.2686V27.1486H118.246ZM128.52 27.1486V16.3886H131.62V22.7886L136.86 16.3886H139.72V27.1486H136.62V20.7486L131.4 27.1486H128.52ZM148.383 27.1486V16.3886H151.483V22.7886L156.723 16.3886H159.583V27.1486H156.483V20.7486L151.263 27.1486H148.383ZM175.026 27.1486V23.5686L175.466 24.0686H172.486C170.94 24.0686 169.726 23.7486 168.846 23.1086C167.966 22.4686 167.526 21.5486 167.526 20.3486C167.526 19.0686 167.986 18.0886 168.906 17.4086C169.84 16.7286 171.093 16.3886 172.666 16.3886H177.806V27.1486H175.026ZM167.366 27.1486L170.226 23.0486H173.406L170.686 27.1486H167.366ZM175.026 22.6086V18.1286L175.466 18.9286H172.726C172.086 18.9286 171.586 19.0486 171.226 19.2886C170.88 19.5286 170.706 19.9152 170.706 20.4486C170.706 21.4752 171.366 21.9886 172.686 21.9886H175.466L175.026 22.6086ZM180.805 27.1486V16.3886H184.065L188.125 23.7486H186.825L191.165 16.3886H194.085L194.125 27.1486H191.305V19.5886L191.785 19.9086L188.085 26.1086H186.765L183.045 19.6886L183.625 19.5486V27.1486H180.805ZM208.194 27.1486V16.3886H211.294V27.1486H208.194ZM202.774 19.8286C204.187 19.8419 205.247 20.1619 205.954 20.7886C206.674 21.4019 207.034 22.2752 207.034 23.4086C207.034 24.5952 206.627 25.5219 205.814 26.1886C205 26.8419 203.847 27.1686 202.354 27.1686L197.114 27.1486V16.3886H200.214V19.8286H202.774ZM202.074 24.9486C202.674 24.9619 203.134 24.8352 203.454 24.5686C203.774 24.3019 203.934 23.9019 203.934 23.3686C203.934 22.8352 203.774 22.4552 203.454 22.2286C203.134 21.9886 202.674 21.8619 202.074 21.8486L200.214 21.8286V24.9486H202.074Z" fill="black"/>
</svg>
